<?xml version="1.0" standalone="no"?><!DOCTYPE svg PUBLIC "-//W3C//DTD SVG 1.1//EN" "http://www.w3.org/Graphics/SVG/1.1/DTD/svg11.dtd"><svg t="1552030315857" class="icon" style="" viewBox="0 0 1024 1024" version="1.1" xmlns="http://www.w3.org/2000/svg" p-id="1553" xmlns:xlink="http://www.w3.org/1999/xlink" width="200" height="200"><defs><style type="text/css"></style></defs><path d="M512 169.179429l55.734857 13.677714c116.150857 28.379429 201.142857 134.436571 201.142857 252.342857v290.742857l21.065143 20.992 28.306286 29.257143H205.750857l28.306286-29.257143 20.992-20.992V435.2c0-117.906286 84.114286-224.914286 201.142857-252.342857L512 169.106286zM512 0c-42.057143 0-73.142857 34.742857-73.142857 77.750857v34.742857C293.522286 146.285714 181.906286 277.942857 181.906286 435.2v261.485714l-99.620572 102.4v51.2h859.428572v-51.2l-99.693715-102.4V435.2C842.020571 277.942857 730.550857 146.285714 585.142857 111.542857v-32.914286c0-36.571429-20.114286-69.485714-54.857143-76.8C523.849143 0 517.485714 0 512 0z m100.571429 923.428571h-201.142858C411.428571 980.114286 455.314286 1024 512 1024s100.571429-43.885714 100.571429-100.571429z" fill="#F5A623" p-id="1554"></path></svg>