<?xml version="1.0" encoding="UTF-8"?>
<svg width="24px" height="24px" viewBox="0 0 24 24" version="1.1" xmlns="http://www.w3.org/2000/svg" xmlns:xlink="http://www.w3.org/1999/xlink">
    <!-- Generator: Sketch 52.3 (67297) - http://www.bohemiancoding.com/sketch -->
    <title>店长-未选中@3x</title>
    <desc>Created with Sketch.</desc>
    <g id="店长-未选中" stroke="none" stroke-width="1" fill="none" fill-rule="evenodd">
        <circle id="椭圆形" stroke="#BBB9BA" fill-rule="nonzero" cx="12" cy="7" r="4.5"></circle>
        <path d="M11.8198039,16 L11.0855388,19.6713253 L12,20.5857864 L12.9144612,19.6713253 L12.1801961,16 L11.8198039,16 Z M11,15 L13,15 L14,20 L12,22 L10,20 L11,15 Z" id="矩形-copy" fill="#BBB9BA" fill-rule="nonzero"></path>
        <path d="M19.7539823,17.1233023 C18.8207549,15.0479603 17.072925,13.3917341 14.8594319,12.6011811 L14.789408,12.576172 C17.0295197,13.3532046 18.8075666,15.0209186 19.752805,17.1209208 Z M14.789408,12.576172 L14.6773511,12.5361506 L14.6746451,12.5372786 C14.7130319,12.5499836 14.7512869,12.5629488 14.789408,12.576172 Z M9.32535495,12.5372786 L9.32264895,12.5361506 L9.21059205,12.576172 C9.24871315,12.5629488 9.28696805,12.5499836 9.32535495,12.5372786 Z M9.21059205,12.576172 L9.1405681,12.6011811 C6.92707496,13.3917341 5.17924514,15.0479603 4.24601773,17.1233023 C5.19243336,15.0209186 6.97048034,13.3532046 9.21059205,12.576172 Z M4.24601773,17.1233023 C3.76463629,18.1938143 3.5,19.3758423 3.5,20.6080975 C3.5,19.3738698 3.7654272,18.1912471 4.24719497,17.1209208 Z M3.5,20.6080975 L4,20.1080975 L3,20.1080975 L3.5,20.6080975 Z M9.32963137,12.5358644 C9.38980295,12.5159847 9.45029849,12.4967441 9.51111095,12.4781514 L9.14504835,12.4490609 C9.20615168,12.4789789 9.26768582,12.507916 9.32963137,12.5358644 Z M14.6703686,12.5358644 C14.7323142,12.507916 14.7938483,12.4789789 14.8549517,12.4490609 L14.488889,12.4781514 C14.5497015,12.4967441 14.6101971,12.5159847 14.6703686,12.5358644 Z M20.5,20.6080975 L21,20.1080975 L20,20.1080975 L20.5,20.6080975 Z" id="路径" stroke="#BBB9BA" fill-rule="nonzero"></path>
        <path d="M10.6937129,13.5 L11.3603796,15.5 L12.6377397,15.5 L13.3058213,13.5 L10.6937129,13.5 Z" id="矩形" stroke="#BBB9BA" fill-rule="nonzero"></path>
    </g>
</svg>