<?xml version="1.0" encoding="UTF-8"?>
<svg width="24px" height="24px" viewBox="0 0 24 24" version="1.1" xmlns="http://www.w3.org/2000/svg" xmlns:xlink="http://www.w3.org/1999/xlink">
    <!-- Generator: Sketch 52.3 (67297) - http://www.bohemiancoding.com/sketch -->
    <title>店长-选中@3x</title>
    <desc>Created with Sketch.</desc>
    <g id="店长-选中" stroke="none" stroke-width="1" fill="none" fill-rule="evenodd">
        <path d="M10.2465797,12.7397391 L10.875,14.625 L10,19 L12,21 L14,19 L13.1243045,14.6215224 L13.7528375,12.7399169 C14.2645988,12.5838334 14.7473301,12.3611854 15.1909435,12.082061 C18.4383309,13.3136972 20.7876023,16.3704809 20.9863458,20 L21,20 L21,20.5 C21,20.7761424 20.7761424,21 20.5,21 L3.5,21 C3.22385763,21 3,20.7761424 3,20.5 L3,20 L3.01365419,20 C3.21239767,16.3704809 5.56166915,13.3136972 8.80905652,12.082061 C9.25250152,12.3610794 9.73503477,12.5836643 10.2465797,12.7397391 Z M11.8198039,15 L12.1801961,15 L12.9144612,18.6713253 L12,19.5857864 L11.0855388,18.6713253 L11.8198039,15 Z M11.3878937,13 L12.6141968,13 L12.2820129,14 L11.7152863,14 L11.3878937,13 Z" id="合并形状" fill="#FDD000" fill-rule="nonzero"></path>
        <circle id="椭圆形-copy" fill="#FDD000" fill-rule="nonzero" cx="12" cy="7" r="5"></circle>
    </g>
</svg>