<?xml version="1.0" encoding="UTF-8"?>
<svg width="24px" height="24px" viewBox="0 0 24 24" version="1.1" xmlns="http://www.w3.org/2000/svg" xmlns:xlink="http://www.w3.org/1999/xlink">
    <!-- Generator: Sketch 52.3 (67297) - http://www.bohemiancoding.com/sketch -->
    <title>申请-选中@3x</title>
    <desc>Created with Sketch.</desc>
    <g id="申请-选中" stroke="none" stroke-width="1" fill="none" fill-rule="evenodd">
        <path d="M5,19 L5,20 L21,20 L21,7 L20,7 L20,6 L21,6 C21.5522847,6 22,6.44771525 22,7 L22,20 C22,20.5522847 21.5522847,21 21,21 L5,21 C4.44771525,21 4,20.5522847 4,20 L4,19 L5,19 Z" id="合并形状" fill="#FDD000" fill-rule="nonzero"></path>
        <path d="M3,3 L19,3 C19.5522847,3 20,3.44771525 20,4 L20,18 C20,18.5522847 19.5522847,19 19,19 L3,19 C2.44771525,19 2,18.5522847 2,18 L2,4 C2,3.44771525 2.44771525,3 3,3 Z M8.52505433,16.2917996 C8.60603875,16.2717297 8.68001368,16.2299437 8.73901119,16.1709424 L15.117832,9.79171007 C15.1211095,9.78843211 12.9810435,7.68627042 12.9967731,7.67053981 L6.6179851,14.0497394 C6.55881943,14.1089089 6.5169685,14.1831399 6.49696491,14.2643929 L6.01519058,16.2213224 C5.93269881,16.5563975 6.2358453,16.8591196 6.5707646,16.7761187 L8.52505433,16.2917996 Z M15.6800662,9.226818 L16.4418554,8.46502876 C17.0271366,7.87974757 17.0271366,6.93081928 16.4418554,6.34553809 C15.8565742,5.7602569 14.9076459,5.7602569 14.3223647,6.34553809 L13.5605755,7.10732733 L15.6800662,9.226818 Z" id="合并形状" fill="#FDD000" fill-rule="nonzero"></path>
    </g>
</svg>