<?xml version="1.0" encoding="UTF-8"?>
<svg width="24px" height="24px" viewBox="0 0 24 24" version="1.1" xmlns="http://www.w3.org/2000/svg" xmlns:xlink="http://www.w3.org/1999/xlink">
    <!-- Generator: Sketch 52.3 (67297) - http://www.bohemiancoding.com/sketch -->
    <title>申请-未选中@3x</title>
    <desc>Created with Sketch.</desc>
    <g id="申请-未选中" stroke="none" stroke-width="1" fill="none" fill-rule="evenodd">
        <path d="M21.5,13 L21.5,20 C21.5,20.2761424 21.2761424,20.5 21,20.5 L12.5,20.5 L21.5,20.5 L21.5,13 Z M12.5,20.5 L4,20.5 L4.5,21 L4.5,20 L4,20.5 L12.5,20.5 Z M21.5,13 L21.5,6 L21,6.5 L22,6.5 L21.5,6 L21.5,13 Z" id="合并形状" stroke="#BBB9BA" fill-rule="nonzero"></path>
        <path d="M3.5,4.5 L3.5,17.5 L18.5,17.5 L18.5,4.5 L3.5,4.5 Z M3,3 L19,3 C19.5522847,3 20,3.44771525 20,4 L20,18 C20,18.5522847 19.5522847,19 19,19 L3,19 C2.44771525,19 2,18.5522847 2,18 L2,4 C2,3.44771525 2.44771525,3 3,3 Z" id="矩形-copy-3" fill="#BBB9BA" fill-rule="nonzero"></path>
        <path d="M7.04269969,13.1672905 C7.06458052,13.0789901 7.11013703,12.9983324 7.17446228,12.9340052 L14.1293181,5.97893447 C14.7679271,5.34034524 15.8033008,5.34036123 16.44189,5.97897019 C17.0804927,6.61759258 17.0804927,7.65298314 16.44189,8.29160554 L9.48706988,15.2466405 C9.4225613,15.3111511 9.34163215,15.3567827 9.25304736,15.3785934 L7.11953632,15.9038903 C6.7542261,15.9938342 6.42418815,15.663302 6.51467856,15.2981268 L7.04269969,13.1672905 Z M7.68448402,14.7349288 L8.87856168,14.4409321 L15.7347723,7.58450968 C15.9828653,7.33640907 15.9828653,6.93416665 15.7347723,6.68606605 C15.4867014,6.43798741 15.0844926,6.4379812 14.8364249,6.68604125 L7.97989858,13.5427794 L7.68448402,14.7349288 Z" id="直线-4" fill="#BBB9BA" fill-rule="nonzero"></path>
        <polygon id="直线" fill="#BBB9BA" fill-rule="nonzero" points="13.2928932 7 14 6.29289322 15.6626834 7.95557663 14.9555766 8.66268341"></polygon>
    </g>
</svg>