<?xml version="1.0" encoding="UTF-8"?>
<svg width="24px" height="24px" viewBox="0 0 24 24" version="1.1" xmlns="http://www.w3.org/2000/svg" xmlns:xlink="http://www.w3.org/1999/xlink">
    <!-- Generator: Sketch 52.3 (67297) - http://www.bohemiancoding.com/sketch -->
    <title>排班-未选中@3x</title>
    <desc>Created with Sketch.</desc>
    <g id="排班-未选中" stroke="none" stroke-width="1" fill="none" fill-rule="evenodd">
        <path d="M19,5.5 L19,4.48547551 C19,4.3092961 18.9544397,4.14375786 18.8744585,4 L21,4 C21.5522847,4 22,4.44771525 22,5 L22,20 C22,20.5522847 21.5522847,21 21,21 L3,21 C2.44771525,21 2,20.5522847 2,20 L2,5 C2,4.44771525 2.44771525,4 3,4 L5.12554153,4 C5.04556025,4.14375786 5,4.3092961 5,4.48547551 L5,5.5 L3.5,5.5 L3.5,19.5 L20.5,19.5 L20.5,5.5 L19,5.5 Z" id="路径" fill="#BBB9BA" fill-rule="nonzero"></path>
        <rect id="矩形" fill="#BBB9BA" fill-rule="nonzero" x="6" y="10" width="2" height="2" rx="1"></rect>
        <rect id="矩形-copy-4" fill="#BBB9BA" fill-rule="nonzero" x="6" y="15" width="2" height="2" rx="1"></rect>
        <rect id="矩形-copy-2" fill="#BBB9BA" fill-rule="nonzero" x="11" y="10" width="2" height="2" rx="1"></rect>
        <rect id="矩形-copy-6" fill="#BBB9BA" fill-rule="nonzero" x="11" y="15" width="2" height="2" rx="1"></rect>
        <rect id="矩形-copy-3" fill="#BBB9BA" fill-rule="nonzero" x="16" y="10" width="2" height="2" rx="1"></rect>
        <path d="M17,15 C16.4477153,15 16,15.4477153 16,16 C16,16.5522847 16.4477153,17 17,17 C17.5522847,17 18,16.5522847 18,16 C18,15.4477153 17.5522847,15 17,15 Z M17,14 C18.1045695,14 19,14.8954305 19,16 C19,17.1045695 18.1045695,18 17,18 C15.8954305,18 15,17.1045695 15,16 C15,14.8954305 15.8954305,14 17,14 Z" id="矩形-copy-5" fill="#BBB9BA" fill-rule="nonzero"></path>
        <path d="M18,4 L16.5493865,4 L16.4527728,3.62462923 C16.2837229,2.96782432 15.6883689,2.5 15,2.5 L9,2.5 C8.31163114,2.5 7.71627714,2.96782432 7.54722724,3.62462923 L7.45061348,4 L6,4 C5.72385763,4 5.5,4.22385763 5.5,4.5 L5.5,6 C5.5,6.27614237 5.72385763,6.5 6,6.5 L18,6.5 C18.2761424,6.5 18.5,6.27614237 18.5,6 L18.5,4.5 C18.5,4.22385763 18.2761424,4 18,4 Z" id="合并形状" stroke="#BBB9BA" fill-rule="nonzero"></path>
    </g>
</svg>