<?xml version="1.0" encoding="UTF-8"?>
<svg width="24px" height="24px" viewBox="0 0 24 24" version="1.1" xmlns="http://www.w3.org/2000/svg" xmlns:xlink="http://www.w3.org/1999/xlink">
    <!-- Generator: Sketch 52.3 (67297) - http://www.bohemiancoding.com/sketch -->
    <title>排班-选中@3x</title>
    <desc>Created with Sketch.</desc>
    <g id="排班-选中" stroke="none" stroke-width="1" fill="none" fill-rule="evenodd">
        <path d="M5.1337822,4 C5.04869714,4.14708668 5,4.31785643 5,4.5 L5,7 L19,7 L19,4.5 C19,4.31785643 18.9513029,4.14708668 18.8662178,4 L21,4 C21.5522847,4 22,4.44771525 22,5 L22,20 C22,20.5522847 21.5522847,21 21,21 L3,21 C2.44771525,21 2,20.5522847 2,20 L2,5 C2,4.44771525 2.44771525,4 3,4 L5.1337822,4 Z M7,10 C6.44771525,10 6,10.4477153 6,11 C6,11.5522847 6.44771525,12 7,12 C7.55228475,12 8,11.5522847 8,11 C8,10.4477153 7.55228475,10 7,10 Z M7,15 C6.44771525,15 6,15.4477153 6,16 C6,16.5522847 6.44771525,17 7,17 C7.55228475,17 8,16.5522847 8,16 C8,15.4477153 7.55228475,15 7,15 Z M12,10 C11.4477153,10 11,10.4477153 11,11 C11,11.5522847 11.4477153,12 12,12 C12.5522847,12 13,11.5522847 13,11 C13,10.4477153 12.5522847,10 12,10 Z M12,15 C11.4477153,15 11,15.4477153 11,16 C11,16.5522847 11.4477153,17 12,17 C12.5522847,17 13,16.5522847 13,16 C13,15.4477153 12.5522847,15 12,15 Z M17,10 C16.4477153,10 16,10.4477153 16,11 C16,11.5522847 16.4477153,12 17,12 C17.5522847,12 18,11.5522847 18,11 C18,10.4477153 17.5522847,10 17,10 Z M17,15 C17.5522847,15 18,15.4477153 18,16 C18,16.5522847 17.5522847,17 17,17 C16.4477153,17 16,16.5522847 16,16 C16,15.4477153 16.4477153,15 17,15 Z M17,14 C15.8954305,14 15,14.8954305 15,16 C15,17.1045695 15.8954305,18 17,18 C18.1045695,18 19,17.1045695 19,16 C19,14.8954305 18.1045695,14 17,14 Z" id="合并形状" fill="#FDD000" fill-rule="nonzero"></path>
        <path d="M8.08535285,3.5 L15.9146471,3.5 C15.7087289,2.91740381 15.1531094,2.5 14.5,2.5 L9.5,2.5 C8.84689059,2.5 8.29127106,2.91740381 8.08535285,3.5 Z" id="矩形" stroke="#FDD000" fill-rule="nonzero"></path>
        <path d="M7,3.5 L17,3.5 C17.5522847,3.5 18,3.94771525 18,4.5 L18,6 L6,6 L6,4.5 C6,3.94771525 6.44771525,3.5 7,3.5 Z" id="矩形" fill="#FDD000" fill-rule="nonzero"></path>
    </g>
</svg>