<?xml version="1.0" encoding="UTF-8"?>
<svg width="24px" height="24px" viewBox="0 0 24 24" version="1.1" xmlns="http://www.w3.org/2000/svg" xmlns:xlink="http://www.w3.org/1999/xlink">
    <!-- Generator: Sketch 52.3 (67297) - http://www.bohemiancoding.com/sketch -->
    <title>统计-未选中@3x</title>
    <desc>Created with Sketch.</desc>
    <g id="统计-未选中" stroke="none" stroke-width="1" fill="none" fill-rule="evenodd">
        <path d="M14.7405494,14.2061863 C14.9633017,14.0751514 15.2228746,14 15.5,14 C15.5819746,14 15.6624134,14.0065757 15.7408177,14.0192285 L19.3820496,7.50011493 C19.1444685,7.23472293 19,6.88423268 19,6.5 C19,5.67157288 19.6715729,5 20.5,5 C21.3284271,5 22,5.67157288 22,6.5 C22,7.32842712 21.3284271,8 20.5,8 C20.4179655,8 20.337469,7.99341466 20.2590105,7.98074379 L16.617835,14.4997562 C16.8554847,14.7651636 17,15.1157051 17,15.5 C17,16.3284271 16.3284271,17 15.5,17 C14.6715729,17 14,16.3284271 14,15.5 C14,15.3137964 14.0339282,15.1355171 14.0959397,14.9710071 L11.3360008,12.7456188 C11.0971235,12.9062587 10.809509,13 10.5,13 C10.1335492,13 9.79779001,12.8685938 9.53727299,12.6503321 L5.99751123,14.9288973 C5.99916113,14.9523837 6,14.9760939 6,15 C6,15.5522847 5.55228475,16 5,16 C4.44771525,16 4,15.5522847 4,15 C4,14.4477153 4.44771525,14 5,14 C5.15674893,14 5.30507446,14.0360649 5.43713138,14.1003496 L9.02781648,11.7890047 C9.00956373,11.6954867 9,11.5988602 9,11.5 C9,10.6715729 9.67157288,10 10.5,10 C11.3284271,10 12,10.6715729 12,11.5 C12,11.6541553 11.9767458,11.8028793 11.9335539,11.9428555 L14.7405494,14.2061863 Z M15.5,15 C15.2238576,15 15,15.2238576 15,15.5 C15,15.7761424 15.2238576,16 15.5,16 C15.7761424,16 16,15.7761424 16,15.5 C16,15.2238576 15.7761424,15 15.5,15 Z" id="合并形状" fill="#BBB9BA" fill-rule="nonzero"></path>
        <path d="M2.5,13 L2.5,20.5 L12.5,20.5 L3,20.5 C2.72385763,20.5 2.5,20.2761424 2.5,20 L2.5,13 Z M12.5,20.5 L22,20.5 L21.5,20 L21.5,21 L22,20.5 L12.5,20.5 Z M2.5,13 L2.5,6 L2,6.5 L3,6.5 L2.5,6 L2.5,13 Z" id="路径" stroke="#BBB9BA" fill-rule="nonzero"></path>
    </g>
</svg>