<?xml version="1.0" encoding="UTF-8"?>
<svg width="24px" height="24px" viewBox="0 0 24 24" version="1.1" xmlns="http://www.w3.org/2000/svg" xmlns:xlink="http://www.w3.org/1999/xlink">
    <!-- Generator: Sketch 52.3 (67297) - http://www.bohemiancoding.com/sketch -->
    <title>统计-选中@3x</title>
    <desc>Created with Sketch.</desc>
    <g id="统计-选中" stroke="none" stroke-width="1" fill="none" fill-rule="evenodd">
        <path d="M3,3 L21,3 C21.5522847,3 22,3.44771525 22,4 L22,20 C22,20.5522847 21.5522847,21 21,21 L3,21 C2.44771525,21 2,20.5522847 2,20 L2,4 C2,3.44771525 2.44771525,3 3,3 Z M3.5,18 C3.22385763,18 3,18.2238576 3,18.5 C3,18.7761424 3.22385763,19 3.5,19 L20.5,19 C20.7761424,19 21,18.7761424 21,18.5 C21,18.2238576 20.7761424,18 20.5,18 L3.5,18 Z M13.7405494,14.2061863 L10.9335539,11.9428555 C10.9767458,11.8028793 11,11.6541553 11,11.5 C11,10.6715729 10.3284271,10 9.5,10 C8.67157288,10 8,10.6715729 8,11.5 C8,11.5988602 8.00956373,11.6954867 8.02781648,11.7890047 L4.43713138,14.1003496 C4.30507446,14.0360649 4.15674893,14 4,14 C3.44771525,14 3,14.4477153 3,15 C3,15.5522847 3.44771525,16 4,16 C4.55228475,16 5,15.5522847 5,15 C5,14.9760939 4.99916113,14.9523837 4.99751123,14.9288973 L8.53727299,12.6503321 C8.79779001,12.8685938 9.13354923,13 9.5,13 C9.80950896,13 10.0971235,12.9062587 10.3360008,12.7456188 L13.0959397,14.9710071 C13.0339282,15.1355171 13,15.3137964 13,15.5 C13,16.3284271 13.6715729,17 14.5,17 C15.3284271,17 16,16.3284271 16,15.5 C16,15.1157051 15.8554847,14.7651636 15.617835,14.4997562 L19.2590105,7.98074379 C19.337469,7.99341466 19.4179655,8 19.5,8 C20.3284271,8 21,7.32842712 21,6.5 C21,5.67157288 20.3284271,5 19.5,5 C18.6715729,5 18,5.67157288 18,6.5 C18,6.88423268 18.1444685,7.23472293 18.3820496,7.50011493 L14.7408177,14.0192285 C14.6624134,14.0065757 14.5819746,14 14.5,14 C14.2228746,14 13.9633017,14.0751514 13.7405494,14.2061863 Z M14.5,15 C14.7761424,15 15,15.2238576 15,15.5 C15,15.7761424 14.7761424,16 14.5,16 C14.2238576,16 14,15.7761424 14,15.5 C14,15.2238576 14.2238576,15 14.5,15 Z" id="合并形状" fill="#FDD000" fill-rule="nonzero"></path>
    </g>
</svg>