<?xml version="1.0" encoding="UTF-8"?>
<svg width="24px" height="24px" viewBox="0 0 24 24" version="1.1" xmlns="http://www.w3.org/2000/svg" xmlns:xlink="http://www.w3.org/1999/xlink">
    <!-- Generator: Sketch 52.3 (67297) - http://www.bohemiancoding.com/sketch -->
    <title>考勤-选中@3x</title>
    <desc>Created with Sketch.</desc>
    <g id="考勤-选中" stroke="none" stroke-width="1" fill="none" fill-rule="evenodd">
        <path d="M22,8 L2,8 L2,5 C2,4.44771525 2.44771525,4 3,4 L6,4 L6,4.5 C6,5.32842712 6.67157288,6 7.5,6 C8.32842712,6 9,5.32842712 9,4.5 L9,4 L15,4 L15,4.5 C15,5.32842712 15.6715729,6 16.5,6 C17.3284271,6 18,5.32842712 18,4.5 L18,4 L21,4 C21.5522847,4 22,4.44771525 22,5 L22,8 Z M22,9 L22,20 C22,20.5522847 21.5522847,21 21,21 L3,21 C2.44771525,21 2,20.5522847 2,20 L2,9 L22,9 Z M15.5,3 C15.5,2.44771525 15.9477153,2 16.5,2 C17.0522847,2 17.5,2.44771525 17.5,3 L17.5,4.5 C17.5,5.05228475 17.0522847,5.5 16.5,5.5 C15.9477153,5.5 15.5,5.05228475 15.5,4.5 L15.5,3 Z M6.5,3 C6.5,2.44771525 6.94771525,2 7.5,2 C8.05228475,2 8.5,2.44771525 8.5,3 L8.5,4.5 C8.5,5.05228475 8.05228475,5.5 7.5,5.5 C6.94771525,5.5 6.5,5.05228475 6.5,4.5 L6.5,3 Z M16.4502862,10.2397927 L10.5192067,16.6300883 L7.56422064,13.2558828 C7.29132542,12.9442723 6.81748995,12.9128874 6.5058795,13.1857826 C6.19426904,13.4586778 6.16288414,13.9325133 6.43577936,14.2441238 L9.93880968,18.2441238 C10.2318765,18.5787675 10.7501342,18.5862534 11.0527441,18.2602138 L17.5497138,11.2602138 C17.8314953,10.9566152 17.8138091,10.482071 17.5102105,10.2002895 C17.206612,9.918508 16.7320677,9.9361942 16.4502862,10.2397927 Z" id="合并形状" fill="#FDD000" fill-rule="nonzero"></path>
    </g>
</svg>