<?xml version="1.0" encoding="UTF-8"?>
<svg width="24px" height="24px" viewBox="0 0 24 24" version="1.1" xmlns="http://www.w3.org/2000/svg" xmlns:xlink="http://www.w3.org/1999/xlink">
    <!-- Generator: Sketch 52.3 (67297) - http://www.bohemiancoding.com/sketch -->
    <title>考勤-未选中@3x</title>
    <desc>Created with Sketch.</desc>
    <g id="考勤-未选中" stroke="none" stroke-width="1" fill="none" fill-rule="evenodd">
        <path d="M3.5,8 L20.5,8 L20.5,5.5 L18,5.5 C18,6.32842712 17.3284271,7 16.5,7 C15.6715729,7 15,6.32842712 15,5.5 L9,5.5 C9,6.32842712 8.32842712,7 7.5,7 C6.67157288,7 6,6.32842712 6,5.5 L3.5,5.5 L3.5,8 Z M3.5,9 L3.5,19.5 L20.5,19.5 L20.5,9 L3.5,9 Z M15,4 L15,3.5 C15,2.67157288 15.6715729,2 16.5,2 C17.3284271,2 18,2.67157288 18,3.5 L18,4 L21,4 C21.5522847,4 22,4.44771525 22,5 L22,20 C22,20.5522847 21.5522847,21 21,21 L3,21 C2.44771525,21 2,20.5522847 2,20 L2,5 C2,4.44771525 2.44771525,4 3,4 L6,4 L6,3.5 C6,2.67157288 6.67157288,2 7.5,2 C8.32842712,2 9,2.67157288 9,3.5 L9,4 L15,4 Z M7.5,3 C7.22385763,3 7,3.22385763 7,3.5 L7,5.5 C7,5.77614237 7.22385763,6 7.5,6 C7.77614237,6 8,5.77614237 8,5.5 L8,3.5 C8,3.22385763 7.77614237,3 7.5,3 Z M16.5,3 C16.2238576,3 16,3.22385763 16,3.5 L16,5.5 C16,5.77614237 16.2238576,6 16.5,6 C16.7761424,6 17,5.77614237 17,5.5 L17,3.5 C17,3.22385763 16.7761424,3 16.5,3 Z M10.5192067,16.6300883 L16.4502862,10.2397927 C16.7320677,9.9361942 17.206612,9.918508 17.5102105,10.2002895 C17.8138091,10.482071 17.8314953,10.9566152 17.5497138,11.2602138 L11.0527441,18.2602138 C10.7501342,18.5862534 10.2318765,18.5787675 9.93880968,18.2441238 L6.43577936,14.2441238 C6.16288414,13.9325133 6.19426904,13.4586778 6.5058795,13.1857826 C6.81748995,12.9128874 7.29132542,12.9442723 7.56422064,13.2558828 L10.5192067,16.6300883 Z" id="合并形状" fill="#BBB9BA" fill-rule="nonzero"></path>
    </g>
</svg>